# Blender 5.2.0 LTS
# www.blender.org
mtllib MAGR996799.mtl
o obj3
v 0.001791 -0.510881 0.035319
v 0.001791 -0.510743 0.009002
v 0.066891 -0.510743 0.008725
v 0.067168 -0.510881 0.035319
v -0.063447 -0.510743 0.008725
v 0.001791 -0.510743 0.009002
v 0.001791 -0.510881 0.035319
v -0.063724 -0.510881 0.035319
v 0.050685 0.312560 0.107345
v 0.057333 0.312560 0.115517
v 0.068137 0.259926 0.091970
v 0.055394 0.260619 0.077011
v 0.068137 -0.414617 -0.282699
v 0.081573 -0.428052 -0.274389
v 0.067722 -0.461017 -0.309016
v 0.054702 -0.447305 -0.316357
v 0.054702 -0.408107 -0.294611
v 0.001791 0.260619 0.077011
v 0.001791 -0.447305 -0.316357
v -0.051258 -0.408107 -0.294611
v -0.051258 -0.447305 -0.316357
v -0.051951 0.260619 0.077011
v -0.064694 -0.414617 -0.282699
v -0.064278 -0.461017 -0.309016
v -0.078129 -0.428052 -0.274389
v -0.064694 0.259926 0.091970
v -0.047242 0.312560 0.107345
v -0.053890 0.312560 0.115517
v -0.080622 0.312560 0.206795
v -0.079237 0.312560 0.307491
v -0.055829 0.312560 0.340595
v -0.057768 0.312560 0.163718
v -0.048073 0.312560 0.340041
v -0.047242 0.312560 0.107345
v -0.053890 0.312560 0.115517
v 0.067306 -0.518499 0.022715
v 0.067168 -0.534012 0.023130
v 0.067168 -0.510743 0.009141
v 0.065090 -0.743716 -0.087262
v 0.065228 -0.509773 -0.280067
v 0.064951 -0.509634 -0.332701
v 0.064951 -0.528195 -0.352508
v 0.064951 -0.515037 -0.346275
v 0.064951 -0.753966 -0.097096
v 0.064951 -0.757567 -0.110670
v 0.064951 -0.755351 -0.255136
v 0.064951 -0.744824 -0.280206
v 0.064951 -0.752581 -0.268710
v 0.064951 -0.650222 -0.359711
v 0.064951 -0.675569 -0.350015
v 0.064951 -0.663935 -0.357494
v 0.082681 0.312560 0.307491
v 0.094177 0.249676 0.271894
v 0.084066 0.312560 0.206795
v 0.094038 0.252862 0.173691
v 0.095978 -0.277630 -0.011913
v 0.096116 -0.239679 -0.089478
v 0.097086 -0.398549 0.014681
v 0.097363 -0.416140 0.084906
v 0.097224 -0.417664 0.015651
v 0.097917 -0.482210 0.050417
v 0.097086 -0.428052 -0.000416
v 0.097640 -0.482210 0.023823
v 0.067168 -0.510881 0.035319
v 0.096947 -0.428052 -0.022024
v 0.066891 -0.510743 0.008725
v 0.094592 -0.481517 -0.267186
v 0.064951 -0.509773 -0.283115
v 0.095008 -0.428052 -0.258599
v 0.067722 -0.461017 -0.309016
v 0.094592 -0.461571 -0.277713
v 0.081573 -0.428052 -0.274389
v 0.059273 0.312560 0.340595
v 0.082681 0.312560 0.307491
v 0.084066 0.312560 0.206795
v 0.061212 0.312560 0.163718
v 0.051654 0.312560 0.340041
v 0.050685 0.312560 0.107345
v 0.057333 0.312560 0.115517
v -0.080622 0.312560 0.206795
v -0.090595 0.249676 0.271894
v -0.079237 0.312560 0.307491
v -0.090595 0.252862 0.173691
v -0.092534 -0.277630 -0.011913
v -0.092673 -0.239679 -0.089478
v -0.093642 -0.398549 0.014681
v -0.093919 -0.416140 0.084906
v -0.093781 -0.417664 0.015651
v -0.094473 -0.482210 0.050417
v -0.093642 -0.428052 -0.000416
v -0.094196 -0.482210 0.023823
v -0.063724 -0.510881 0.035319
v -0.093504 -0.428052 -0.022024
v -0.063447 -0.510743 0.008725
v -0.091149 -0.481517 -0.267186
v -0.061508 -0.509773 -0.283115
v -0.091565 -0.428052 -0.258599
v -0.064278 -0.461017 -0.309016
v -0.091149 -0.461571 -0.277713
v -0.078129 -0.428052 -0.274389
v -0.063724 -0.510743 0.009141
v -0.063863 -0.518499 0.022715
v 0.067168 -0.510743 0.009141
v 0.067306 -0.518499 0.022715
v -0.063724 -0.534012 0.023130
v 0.067168 -0.534012 0.023130
v -0.061647 -0.743716 -0.087262
v 0.065090 -0.743716 -0.087262
v -0.061508 -0.753966 -0.097096
v 0.064951 -0.753966 -0.097096
v -0.061508 -0.757567 -0.110670
v 0.064951 -0.757567 -0.110670
v -0.061508 -0.755351 -0.255136
v 0.064951 -0.755351 -0.255136
v -0.061508 -0.752581 -0.268710
v 0.064951 -0.752581 -0.268710
v -0.061508 -0.744824 -0.280206
v 0.064951 -0.744824 -0.280206
v -0.061508 -0.675569 -0.350015
v 0.064951 -0.675569 -0.350015
v -0.061508 -0.663935 -0.357494
v 0.064951 -0.663935 -0.357494
v -0.061508 -0.650222 -0.359711
v 0.064951 -0.650222 -0.359711
v -0.061508 -0.528195 -0.352508
v 0.064951 -0.528195 -0.352508
v -0.061508 -0.515037 -0.346275
v 0.064951 -0.515037 -0.346275
v -0.061508 -0.509634 -0.332701
v 0.064951 -0.509634 -0.332701
v 0.065228 -0.509773 -0.280067
v -0.061785 -0.509773 -0.280067
v -0.063724 -0.510743 0.009141
v -0.063724 -0.534012 0.023130
v -0.063863 -0.518499 0.022715
v -0.061647 -0.743716 -0.087262
v -0.061785 -0.509773 -0.280067
v -0.061508 -0.509634 -0.332701
v -0.061508 -0.515037 -0.346275
v -0.061508 -0.528195 -0.352508
v -0.061508 -0.757567 -0.110670
v -0.061508 -0.753966 -0.097096
v -0.061508 -0.755351 -0.255136
v -0.061508 -0.744824 -0.280206
v -0.061508 -0.752581 -0.268710
v -0.061508 -0.650222 -0.359711
v -0.061508 -0.675569 -0.350015
v -0.061508 -0.663935 -0.357494
v 0.095008 -0.428052 -0.258599
v 0.081573 -0.428052 -0.274389
v 0.096947 -0.428052 -0.022024
v 0.097086 -0.428052 -0.000416
v 0.068137 -0.414617 -0.002355
v 0.068137 -0.414617 -0.282699
v 0.068137 -0.411292 0.003323
v 0.097224 -0.417664 0.015651
v 0.097086 -0.398549 0.014681
v 0.068137 -0.404367 0.002492
v 0.096116 -0.239679 -0.089478
v 0.068137 -0.212669 -0.123136
v 0.068137 0.259926 0.091970
v 0.094038 0.252862 0.173691
v 0.061212 0.312560 0.163718
v 0.057333 0.312560 0.115517
v 0.084066 0.312560 0.206795
v 0.059273 0.312560 0.340595
v 0.051654 0.312560 0.340041
v 0.051793 0.267960 0.432012
v 0.062320 0.266990 0.434089
v 0.001791 0.267960 0.432012
v 0.001791 0.266990 0.434089
v 0.001791 0.248984 0.436859
v 0.062735 0.248984 0.436859
v 0.001791 -0.372371 0.108037
v 0.074093 -0.372371 0.108037
v 0.001791 -0.416140 0.084906
v 0.097363 -0.416140 0.084906
v 0.001791 -0.482210 0.050417
v 0.097917 -0.482210 0.050417
v 0.067168 -0.510881 0.035319
v 0.001791 -0.510881 0.035319
v -0.093504 -0.428052 -0.022024
v -0.078129 -0.428052 -0.274389
v -0.091565 -0.428052 -0.258599
v -0.093642 -0.428052 -0.000416
v -0.064694 -0.414617 -0.002355
v -0.064694 -0.414617 -0.282699
v -0.064694 -0.411292 0.003323
v -0.093781 -0.417664 0.015651
v -0.093642 -0.398549 0.014681
v -0.064694 -0.404367 0.002492
v -0.092673 -0.239679 -0.089478
v -0.064694 -0.212669 -0.123136
v -0.064694 0.259926 0.091970
v -0.090595 0.252862 0.173691
v -0.057768 0.312560 0.163718
v -0.053890 0.312560 0.115517
v -0.080622 0.312560 0.206795
v -0.048350 0.267960 0.432012
v -0.048073 0.312560 0.340041
v -0.055829 0.312560 0.340595
v -0.058738 0.266990 0.434089
v 0.001791 0.266990 0.434089
v 0.001791 0.267960 0.432012
v 0.001791 0.248984 0.436859
v -0.059292 0.248984 0.436859
v 0.001791 -0.372371 0.108037
v -0.070650 -0.372371 0.108037
v 0.001791 -0.416140 0.084906
v -0.093919 -0.416140 0.084906
v 0.001791 -0.482210 0.050417
v -0.094473 -0.482210 0.050417
v -0.063724 -0.510881 0.035319
v 0.001791 -0.510881 0.035319
v 0.018274 0.310621 0.124658
v 0.029077 0.307712 0.124658
v 0.018274 0.316299 0.121473
v 0.031848 0.312560 0.121473
v 0.041820 0.302587 0.121473
v 0.036972 0.299817 0.124658
v 0.039881 0.289013 0.124658
v 0.045560 0.289013 0.121473
v 0.039881 0.289013 0.124658
v 0.036972 0.278348 0.124658
v 0.045560 0.289013 0.121473
v 0.041820 0.275439 0.121473
v 0.031848 0.265466 0.121473
v 0.029077 0.270453 0.124658
v 0.018274 0.267544 0.124658
v 0.018274 0.261865 0.121473
v 0.018274 0.267544 0.124658
v 0.007608 0.270453 0.124658
v 0.018274 0.261865 0.121473
v 0.004700 0.265466 0.121473
v -0.005273 0.275439 0.121473
v -0.000287 0.278348 0.124658
v -0.003195 0.289013 0.124658
v -0.008874 0.289013 0.121473
v -0.003195 0.289013 0.124658
v -0.000287 0.299817 0.124658
v -0.008874 0.289013 0.121473
v -0.005273 0.302587 0.121473
v 0.004700 0.312560 0.121473
v 0.007608 0.307712 0.124658
v 0.018274 0.310621 0.124658
v 0.018274 0.316299 0.121473
v 0.074093 -0.372371 0.108037
v 0.097363 -0.416140 0.084906
v 0.095978 -0.277630 -0.011913
v 0.070630 -0.264611 0.028809
v 0.062735 0.248984 0.436859
v 0.094177 0.249676 0.271894
v 0.059273 0.312560 0.340595
v 0.062320 0.266990 0.434089
v 0.082681 0.312560 0.307491
v -0.092534 -0.277630 -0.011913
v -0.093919 -0.416140 0.084906
v -0.070650 -0.372371 0.108037
v -0.067187 -0.264611 0.028809
v -0.059292 0.248984 0.436859
v -0.090595 0.249676 0.271894
v -0.055829 0.312560 0.340595
v -0.058738 0.266990 0.434089
v -0.079237 0.312560 0.307491
v 0.018274 0.311313 0.114270
v 0.018274 0.316299 0.121473
v 0.031848 0.312560 0.121473
v 0.029493 0.308266 0.114270
v 0.018274 0.289013 0.114270
v 0.041820 0.302587 0.121473
v 0.037526 0.300232 0.114270
v 0.040574 0.289013 0.114270
v 0.045560 0.289013 0.121473
v 0.040574 0.289013 0.114270
v 0.045560 0.289013 0.121473
v 0.041820 0.275439 0.121473
v 0.037526 0.277932 0.114270
v 0.018274 0.289013 0.114270
v 0.031848 0.265466 0.121473
v 0.029493 0.269760 0.114270
v 0.018274 0.266851 0.114270
v 0.018274 0.261865 0.121473
v 0.018274 0.266851 0.114270
v 0.018274 0.261865 0.121473
v 0.004700 0.265466 0.121473
v 0.007193 0.269760 0.114270
v -0.005273 0.275439 0.121473
v -0.000979 0.277932 0.114270
v -0.003888 0.289013 0.114270
v -0.008874 0.289013 0.121473
v -0.003888 0.289013 0.114270
v -0.008874 0.289013 0.121473
v -0.005273 0.302587 0.121473
v -0.000979 0.300232 0.114270
v 0.004700 0.312560 0.121473
v 0.007193 0.308266 0.114270
v 0.018274 0.311313 0.114270
v 0.018274 0.316299 0.121473
v 0.047776 0.168094 0.374807
v 0.001791 0.168094 0.374807
v 0.001791 0.267960 0.432012
v 0.051793 0.267960 0.432012
v 0.055810 0.261588 0.081859
v 0.051654 0.312560 0.340041
v 0.050685 0.312560 0.107345
v 0.055394 0.260619 0.077011
v 0.047361 0.167678 0.046400
v 0.001791 0.168094 0.374807
v 0.001791 0.167678 0.046400
v 0.001791 0.261588 0.081859
v 0.001791 0.260619 0.077011
v 0.001791 0.167678 0.046400
v 0.001791 0.267960 0.432012
v 0.001791 0.168094 0.374807
v -0.044333 0.168094 0.374807
v -0.048350 0.267960 0.432012
v -0.052366 0.261588 0.081859
v -0.048073 0.312560 0.340041
v -0.047242 0.312560 0.107345
v -0.051951 0.260619 0.077011
v -0.043917 0.167678 0.046400
v 0.001791 0.168094 0.374807
v 0.001791 0.167678 0.046400
v 0.001791 0.261588 0.081859
v 0.001791 0.260619 0.077011
v 0.001791 0.167678 0.046400
v 0.018274 0.310621 0.124658
v 0.018274 0.314360 0.132692
v 0.031017 0.311036 0.132692
v 0.029077 0.307712 0.124658
v 0.018274 0.314360 0.321619
v 0.040297 0.301756 0.132692
v 0.036972 0.299817 0.124658
v 0.039881 0.289013 0.124658
v 0.043759 0.289013 0.132692
v 0.031017 0.311036 0.321619
v 0.040297 0.301756 0.321619
v 0.043759 0.289013 0.321619
v 0.027554 0.304942 0.338240
v 0.036695 0.289013 0.338240
v 0.018274 0.307435 0.338240
v 0.034202 0.298293 0.338240
v 0.032956 0.297462 0.365527
v 0.035310 0.289013 0.365527
v 0.018274 0.289013 0.436998
v 0.026723 0.303695 0.365527
v 0.018274 0.306050 0.365527
v 0.039881 0.289013 0.124658
v 0.043759 0.289013 0.132692
v 0.040297 0.276409 0.132692
v 0.036972 0.278348 0.124658
v 0.043759 0.289013 0.321619
v 0.031017 0.267128 0.132692
v 0.029077 0.270453 0.124658
v 0.018274 0.267544 0.124658
v 0.018274 0.263666 0.132692
v 0.040297 0.276409 0.321619
v 0.031017 0.267129 0.321619
v 0.018274 0.263666 0.321619
v 0.034202 0.279871 0.338240
v 0.018274 0.270591 0.338240
v 0.036695 0.289013 0.338240
v 0.027554 0.273084 0.338240
v 0.026723 0.274331 0.365527
v 0.018274 0.272115 0.365527
v 0.018274 0.289013 0.436998
v 0.032956 0.280564 0.365527
v 0.035310 0.289013 0.365527
v 0.018274 0.267544 0.124658
v 0.018274 0.263666 0.132692
v 0.005669 0.267128 0.132692
v 0.007608 0.270453 0.124658
v 0.018274 0.263666 0.321619
v -0.003611 0.276409 0.132692
v -0.000287 0.278348 0.124658
v -0.003195 0.289013 0.124658
v -0.007074 0.289013 0.132692
v 0.005669 0.267129 0.321619
v -0.003611 0.276409 0.321619
v -0.007074 0.289013 0.321619
v 0.009132 0.273084 0.338240
v -0.000148 0.289013 0.338240
v 0.018274 0.270591 0.338240
v 0.002345 0.279871 0.338240
v 0.003592 0.280564 0.365527
v 0.001375 0.289013 0.365527
v 0.009824 0.274331 0.365527
v 0.018274 0.272115 0.365527
v -0.003195 0.289013 0.124658
v -0.007074 0.289013 0.132692
v -0.003611 0.301756 0.132692
v -0.000287 0.299817 0.124658
v -0.007074 0.289013 0.321619
v 0.005669 0.311036 0.132692
v 0.007608 0.307712 0.124658
v 0.018274 0.310621 0.124658
v 0.018274 0.314360 0.132692
v -0.003611 0.301756 0.321619
v 0.005669 0.311036 0.321619
v 0.018274 0.314360 0.321619
v 0.002345 0.298293 0.338240
v 0.018274 0.307435 0.338240
v -0.000148 0.289013 0.338240
v 0.009132 0.304942 0.338240
v 0.009824 0.303695 0.365527
v 0.018274 0.306050 0.365527
v 0.003592 0.297462 0.365527
v 0.001375 0.289013 0.365527
v 0.054702 -0.447305 -0.316357
v 0.067722 -0.461017 -0.309016
v 0.001791 -0.460463 -0.308739
v 0.064951 -0.509773 -0.283115
v 0.001791 -0.447305 -0.316357
v 0.001791 -0.509912 -0.279929
v -0.051258 -0.447305 -0.316357
v -0.061508 -0.509773 -0.283115
v -0.064278 -0.461017 -0.309016
vn -0.0048 -0.9997 -0.0230
vn 0.7089 0.4039 -0.5782
vn 0.9529 0.2616 -0.1532
vn 0.9983 0.0391 -0.0430
vn 0.2396 0.4724 -0.8482
vn 0.7176 0.3369 -0.6096
vn 0.7175 0.3353 -0.6106
vn 0.7510 0.0264 -0.6598
vn 0.2395 0.4715 -0.8487
vn 0.1460 0.4787 -0.8658
vn -0.0000 0.4797 -0.8774
vn -0.0000 0.4795 -0.8775
vn -0.1496 0.4784 -0.8653
vn -0.2430 0.4719 -0.8475
vn -0.2429 0.4720 -0.8475
vn -0.7176 0.3369 -0.6096
vn -0.7510 0.0264 -0.6597
vn -0.7175 0.3353 -0.6106
vn -0.9983 0.0391 -0.0429
vn -0.7089 0.4039 -0.5782
vn -0.9529 0.2616 -0.1532
vn -0.0000 0.9997 -0.0227
vn -0.0078 0.9935 0.1131
vn -0.0116 0.9886 0.1504
vn 0.9997 0.0009 -0.0232
vn 0.9997 -0.0029 -0.0243
vn 0.9997 -0.0029 -0.0240
vn 0.9997 -0.0035 -0.0227
vn 0.9997 -0.0036 -0.0233
vn 0.9997 -0.0044 -0.0225
vn 0.9997 -0.0045 -0.0223
vn 0.9998 -0.0029 -0.0213
vn 0.9998 -0.0031 -0.0221
vn 0.9997 -0.0042 -0.0224
vn 0.9997 -0.0044 -0.0224
vn 0.9849 0.1724 0.0135
vn 0.9995 0.0313 -0.0000
vn 0.9714 0.2174 -0.0957
vn 0.9623 0.1395 -0.2335
vn 0.9877 -0.0388 0.1513
vn 0.9641 0.0151 -0.2650
vn 0.9998 -0.0053 -0.0217
vn 0.9746 0.1338 0.1797
vn 0.9997 -0.0057 -0.0220
vn 0.9906 -0.1364 -0.0078
vn 0.9997 -0.0063 -0.0222
vn 0.9147 -0.4039 -0.0117
vn 0.6874 -0.7263 -0.0010
vn 0.9997 -0.0063 -0.0227
vn 0.6882 -0.7255 -0.0018
vn 0.8977 -0.4365 -0.0600
vn 0.7130 -0.6935 -0.1035
vn 0.9998 -0.0040 -0.0195
vn 0.7510 0.0273 -0.6597
vn 0.8683 0.0509 -0.4934
vn 0.7173 0.3350 -0.6109
vn 0.0003 0.9997 -0.0227
vn -0.9714 0.2174 -0.0957
vn -0.9995 0.0312 -0.0000
vn -0.9853 0.1703 0.0136
vn -0.9623 0.1395 -0.2335
vn -0.9877 -0.0388 0.1514
vn -0.9641 0.0151 -0.2650
vn -0.9998 -0.0053 -0.0217
vn -0.9746 0.1338 0.1797
vn -0.9997 -0.0057 -0.0220
vn -0.9944 -0.1057 0.0039
vn -0.9997 -0.0063 -0.0222
vn -0.9147 -0.4039 -0.0117
vn -0.6833 -0.7301 -0.0097
vn -0.9997 -0.0063 -0.0227
vn -0.6832 -0.7302 -0.0096
vn -0.8977 -0.4365 -0.0600
vn -0.7131 -0.6934 -0.1036
vn -0.9998 -0.0040 -0.0195
vn -0.7510 0.0273 -0.6597
vn -0.8683 0.0509 -0.4934
vn -0.7173 0.3350 -0.6109
vn -0.0000 0.8726 0.4885
vn -0.0000 0.5188 0.8549
vn -0.0000 0.8726 0.4884
vn -0.0001 0.5188 0.8549
vn 0.0022 -0.4570 0.8895
vn -0.0000 -0.4571 0.8894
vn -0.0000 -0.4568 0.8896
vn 0.0013 -0.4567 0.8896
vn -0.0000 -0.8549 0.5188
vn 0.0001 -0.8549 0.5188
vn -0.0039 -0.9998 -0.0200
vn -0.0039 -0.9998 -0.0199
vn -0.0039 -0.9998 -0.0190
vn -0.0000 -0.9221 -0.3870
vn -0.0000 -0.9221 -0.3871
vn -0.0000 -0.7248 -0.6890
vn -0.0000 -0.7247 -0.6890
vn -0.0000 -0.6900 -0.7238
vn -0.0075 -0.3326 -0.9430
vn -0.0000 0.0367 -0.9993
vn -0.0000 0.0970 -0.9953
vn -0.0000 0.0969 -0.9953
vn -0.0000 0.7292 -0.6843
vn -0.0006 0.9970 -0.0772
vn -0.0000 0.9970 -0.0772
vn -0.0001 0.9997 -0.0224
vn -0.0000 0.9997 -0.0224
vn -0.9997 -0.0029 -0.0240
vn -0.9997 -0.0029 -0.0243
vn -0.9997 0.0009 -0.0232
vn -0.9997 -0.0035 -0.0227
vn -0.9997 -0.0036 -0.0233
vn -0.9997 -0.0044 -0.0225
vn -0.9997 -0.0045 -0.0223
vn -0.9998 -0.0031 -0.0221
vn -0.9998 -0.0029 -0.0213
vn -0.9997 -0.0042 -0.0224
vn -0.9997 -0.0044 -0.0224
vn 0.5981 0.8014 -0.0031
vn -0.0002 0.9997 -0.0227
vn 0.4223 0.9049 -0.0533
vn 0.6789 0.7336 -0.0287
vn 0.9972 0.0746 -0.0039
vn 0.5049 0.3799 -0.7751
vn 0.4306 0.4116 -0.8032
vn 0.4209 -0.4666 -0.7779
vn 0.9892 -0.0776 -0.1242
vn 0.9643 0.0152 -0.2644
vn 0.9899 0.0503 -0.1325
vn 0.9983 0.0392 -0.0432
vn 0.9621 0.1398 -0.2342
vn 0.8944 0.2392 -0.3779
vn 0.9529 0.2616 -0.1533
vn 0.9715 0.2171 -0.0951
vn -0.0078 0.9936 0.1131
vn -0.0117 0.9884 0.1517
vn -0.0063 0.9071 0.4209
vn -0.0032 0.5552 0.8317
vn -0.0071 0.9030 0.4295
vn -0.0000 0.2360 0.9718
vn -0.0000 -0.4570 0.8895
vn -0.0000 -0.4544 0.8908
vn -0.0000 -0.4538 0.8911
vn -0.0000 -0.4537 0.8912
vn -0.0000 -0.4536 0.8912
vn -0.0001 -0.4534 0.8913
vn -0.0000 -0.4540 0.8910
vn -0.6015 0.7989 -0.0031
vn -0.4252 0.9036 -0.0528
vn -0.6807 0.7320 -0.0289
vn -0.9972 0.0746 -0.0039
vn -0.5071 0.3793 -0.7739
vn -0.4306 0.4116 -0.8032
vn -0.4235 -0.4658 -0.7770
vn -0.9892 -0.0776 -0.1242
vn -0.9643 0.0152 -0.2644
vn -0.9899 0.0503 -0.1325
vn -0.9983 0.0392 -0.0432
vn -0.9621 0.1398 -0.2342
vn -0.8944 0.2392 -0.3779
vn -0.9529 0.2616 -0.1533
vn -0.9715 0.2171 -0.0951
vn -0.0074 0.9059 0.4235
vn -0.0116 0.9884 0.1516
vn -0.0078 0.9936 0.1130
vn -0.0000 0.2361 0.9717
vn -0.0073 0.9031 0.4294
vn 0.0002 -0.4570 0.8895
vn -0.0000 -0.4534 0.8913
vn -0.0097 0.4760 0.8794
vn 0.2383 0.4142 0.8784
vn 0.4143 0.2383 0.8784
vn 0.4142 0.2383 0.8784
vn 0.4760 0.0072 0.8794
vn 0.4760 0.0066 0.8794
vn 0.4140 -0.2414 0.8777
vn 0.4140 -0.2415 0.8777
vn 0.2432 -0.4232 0.8728
vn 0.2454 -0.4214 0.8730
vn -0.0003 -0.4569 0.8895
vn -0.0002 -0.4569 0.8895
vn 0.0002 -0.4569 0.8895
vn -0.2414 -0.4195 0.8751
vn 0.0001 -0.4569 0.8895
vn -0.2414 -0.4186 0.8755
vn -0.4189 -0.2426 0.8750
vn -0.4180 -0.2423 0.8755
vn -0.4786 -0.0108 0.8780
vn -0.4786 -0.0099 0.8780
vn -0.4222 0.2449 0.8728
vn -0.4786 -0.0098 0.8780
vn -0.4230 0.2425 0.8730
vn -0.2415 0.4140 0.8777
vn -0.2413 0.4140 0.8777
vn -0.0109 0.4760 0.8794
vn 0.9974 0.0586 0.0429
vn 0.9746 0.1338 0.1796
vn 0.9878 -0.0388 0.1509
vn 0.9878 -0.0387 0.1508
vn 0.9998 -0.0059 -0.0197
vn 0.6846 -0.3328 0.6485
vn 0.9977 -0.0155 0.0661
vn 0.9998 -0.0062 -0.0191
vn 0.8039 -0.1748 0.5685
vn -0.9878 -0.0387 0.1510
vn -0.9746 0.1337 0.1796
vn -0.9974 0.0586 0.0430
vn -0.9878 -0.0388 0.1509
vn -0.9998 -0.0057 -0.0198
vn -0.6844 -0.3334 0.6484
vn -0.9977 -0.0155 0.0661
vn -0.9998 -0.0057 -0.0197
vn -0.8037 -0.1765 0.5683
vn 0.0035 0.3293 -0.9442
vn 0.0098 0.8260 -0.5636
vn 0.4136 0.7156 -0.5629
vn 0.1703 0.2814 -0.9444
vn -0.0000 -0.0000 -1.0000
vn 0.7095 0.4039 -0.5775
vn 0.2887 0.1592 -0.9441
vn 0.3293 -0.0076 -0.9442
vn 0.8260 -0.0126 -0.5636
vn 0.3293 -0.0073 -0.9442
vn 0.8259 -0.0132 -0.5636
vn 0.7107 -0.4186 -0.5654
vn 0.2811 -0.1738 -0.9438
vn 0.3961 -0.7253 -0.5630
vn 0.1591 -0.2923 -0.9430
vn -0.0074 -0.3328 -0.9430
vn -0.0127 -0.8260 -0.5636
vn -0.0132 -0.8259 -0.5636
vn -0.4211 -0.7106 -0.5637
vn -0.1740 -0.2851 -0.9426
vn -0.7195 -0.4057 -0.5637
vn -0.2919 -0.1626 -0.9425
vn -0.3328 0.0037 -0.9430
vn -0.8260 0.0096 -0.5636
vn -0.8260 0.0097 -0.5636
vn -0.7097 0.4037 -0.5773
vn -0.2853 0.1704 -0.9432
vn -0.4059 0.7197 -0.5633
vn -0.1630 0.2889 -0.9434
vn 0.0039 0.3294 -0.9442
vn 0.0097 0.8260 -0.5636
vn -0.9077 0.4058 -0.1068
vn -0.0000 0.4827 -0.8758
vn -0.9737 0.1298 -0.1871
vn -0.9951 0.0157 0.0977
vn -0.9998 -0.0021 -0.0203
vn -0.9946 -0.1038 0.0076
vn -0.4350 0.8911 -0.1290
vn -0.8294 0.5335 0.1660
vn -0.0000 0.9997 -0.0229
vn -0.0000 -0.3128 0.9498
vn -0.0000 0.9833 -0.1822
vn -0.0000 -0.3667 0.9303
vn 0.9077 0.4058 -0.1068
vn 0.9737 0.1298 -0.1871
vn 0.9951 0.0157 0.0976
vn 0.9998 -0.0022 -0.0201
vn 0.9909 -0.1344 -0.0070
vn 0.4359 0.8906 -0.1296
vn 0.8294 0.5335 0.1660
vn -0.0000 -0.3129 0.9498
vn -0.0000 0.9833 -0.1821
vn -0.0002 0.9007 -0.4345
vn -0.0001 0.9998 -0.0195
vn 0.4993 0.8662 -0.0207
vn 0.4649 0.7713 -0.4347
vn -0.0042 0.9996 0.0273
vn 0.8662 0.4993 -0.0172
vn 0.7790 0.4469 -0.4399
vn 0.9007 -0.0002 -0.4345
vn 0.4992 0.8659 0.0309
vn 0.8660 0.4992 0.0278
vn 0.9996 -0.0003 0.0273
vn 0.4863 0.8481 0.2105
vn 0.9798 0.0039 0.1998
vn -0.0076 0.9798 0.1998
vn 0.8497 0.4899 0.1949
vn 0.8501 0.4902 0.1922
vn 0.9798 0.0038 0.1998
vn -0.0040 -0.0038 1.0000
vn 0.4865 0.8493 0.2050
vn -0.0077 0.9798 0.1998
vn 0.9007 0.0002 -0.4345
vn 0.9998 -0.0038 -0.0195
vn 0.8647 -0.5019 -0.0208
vn 0.7775 -0.4565 -0.4325
vn 0.9996 0.0003 0.0273
vn 0.4993 -0.8662 -0.0171
vn 0.4469 -0.7790 -0.4399
vn -0.0002 -0.9007 -0.4345
vn -0.0040 -0.9998 -0.0195
vn 0.8642 -0.5023 0.0310
vn 0.4993 -0.8660 0.0277
vn -0.0003 -0.9996 0.0272
vn 0.8466 -0.4879 0.2128
vn 0.0038 -0.9798 0.1998
vn 0.4901 -0.8496 0.1949
vn 0.4901 -0.8502 0.1922
vn -0.0039 -0.0040 1.0000
vn 0.8480 -0.4891 0.2041
vn 0.0002 -0.9007 -0.4345
vn -0.0038 -0.9998 -0.0195
vn -0.5019 -0.8647 -0.0208
vn -0.4565 -0.7775 -0.4325
vn 0.0003 -0.9996 0.0273
vn -0.8647 -0.5019 -0.0178
vn -0.7801 -0.4525 -0.4320
vn -0.9007 -0.0035 -0.4344
vn -0.9998 -0.0038 -0.0195
vn -0.5025 -0.8640 0.0310
vn -0.8645 -0.5018 0.0278
vn -0.9996 -0.0036 0.0273
vn -0.4888 -0.8458 0.2138
vn -0.9798 -0.0077 0.1998
vn -0.8480 -0.4922 0.1967
vn -0.8491 -0.4926 0.1907
vn -0.9798 -0.0078 0.1998
vn -0.0039 -0.0041 1.0000
vn -0.4889 -0.8482 0.2040
vn 0.0039 -0.9798 0.1998
vn -0.9007 -0.0037 -0.4344
vn -0.8662 0.4993 -0.0208
vn -0.7713 0.4649 -0.4347
vn -0.9996 -0.0042 0.0273
vn -0.5019 0.8648 -0.0178
vn -0.4525 0.7801 -0.4320
vn 0.0002 0.9007 -0.4345
vn 0.0001 0.9998 -0.0195
vn -0.8659 0.4992 0.0310
vn -0.5018 0.8646 0.0277
vn -0.0036 0.9996 0.0272
vn -0.8477 0.4869 0.2104
vn -0.9798 -0.0076 0.1998
vn -0.4918 0.8483 0.1963
vn -0.4928 0.8490 0.1907
vn -0.0040 -0.0040 1.0000
vn -0.8494 0.4863 0.2050
vn 0.0008 -0.4930 -0.8700
vn 0.0004 -0.4926 -0.8703
vn 0.0001 -0.4860 -0.8740
vn 0.0010 -0.4920 -0.8706
vn -0.0000 -0.4898 -0.8718
vn -0.0000 -0.4901 -0.8716
vn -0.0008 -0.4930 -0.8700
vn -0.0010 -0.4920 -0.8706
vn -0.0004 -0.4926 -0.8703
vt 0.108310 0.037150
vt 0.108310 0.044020
vt 0.091390 0.044020
vt 0.091380 0.037160
vt 1.091390 0.044020
vt 1.108310 0.044020
vt 1.108310 0.037150
vt 1.091380 0.037160
vt 0.003490 0.666640
vt 0.002440 0.664080
vt 0.017370 0.661230
vt 0.019110 0.666030
vt 0.217410 0.661230
vt 0.219400 0.656260
vt 0.231250 0.661440
vt 0.229050 0.666220
vt 0.217440 0.666210
vt 0.019110 0.679950
vt 0.229050 0.679950
vt 0.217440 0.693700
vt 0.229050 0.693690
vt 0.019110 0.693860
vt 0.217410 0.698670
vt 0.231250 0.698460
vt 0.219400 0.703640
vt 0.017370 0.698660
vt 0.003490 0.693250
vt 0.002440 0.695810
vt 1.613990 0.009500
vt 1.635500 0.009110
vt 1.642530 0.004090
vt 1.604790 0.004660
vt 1.642410 0.002440
vt 1.592720 0.002450
vt 1.594500 0.003870
vt 0.920880 0.449410
vt 0.924240 0.449300
vt 0.919240 0.452340
vt 0.969400 0.472970
vt 0.919240 0.514730
vt 0.919240 0.526070
vt 0.923290 0.530330
vt 0.920420 0.529000
vt 0.971610 0.475060
vt 0.972390 0.477980
vt 0.972390 0.509140
vt 0.970130 0.514540
vt 0.971780 0.512070
vt 0.949700 0.531780
vt 0.955180 0.529660
vt 0.952670 0.531310
vt 0.530440 0.291620
vt 0.549510 0.291620
vt 0.542930 0.314360
vt 0.560820 0.314360
vt 0.704840 0.291620
vt 0.705640 0.314360
vt 0.729230 0.271120
vt 0.724650 0.252060
vt 0.733490 0.268540
vt 0.743990 0.252060
vt 0.737860 0.270940
vt 0.747240 0.258150
vt 0.755050 0.252060
vt 0.740540 0.275870
vt 0.758310 0.258070
vt 0.782890 0.324900
vt 0.794010 0.324010
vt 0.769890 0.329880
vt 0.786930 0.337970
vt 0.780110 0.329550
vt 0.772800 0.335560
vt 0.642530 0.004090
vt 0.635500 0.009110
vt 0.613990 0.009500
vt 0.604790 0.004660
vt 0.642410 0.002440
vt 0.592720 0.002450
vt 0.594500 0.003870
vt 1.542930 0.314360
vt 1.549510 0.291620
vt 1.530440 0.291620
vt 1.560820 0.314360
vt 1.704840 0.291620
vt 1.705640 0.314360
vt 1.729230 0.271120
vt 1.724650 0.252060
vt 1.733490 0.268540
vt 1.743990 0.252060
vt 1.737860 0.270940
vt 1.747240 0.258150
vt 1.755050 0.252060
vt 1.740540 0.275870
vt 1.758310 0.258070
vt 1.782890 0.324900
vt 1.794010 0.324010
vt 1.769880 0.329880
vt 1.786930 0.337970
vt 1.780110 0.329550
vt 1.772800 0.335560
vt 0.844120 0.947480
vt 0.847060 0.947480
vt 0.844120 0.971470
vt 0.847060 0.971470
vt 0.850000 0.947480
vt 0.850000 0.971470
vt 0.894690 0.947480
vt 0.894690 0.971470
vt 0.897360 0.947480
vt 0.897360 0.971470
vt 0.900020 0.947480
vt 0.900020 0.971470
vt 0.927260 0.947480
vt 0.927260 0.971470
vt 0.929870 0.947480
vt 0.929870 0.971470
vt 0.932480 0.947480
vt 0.932480 0.971470
vt 0.951040 0.947480
vt 0.951040 0.971470
vt 0.953660 0.947480
vt 0.953660 0.971470
vt 0.956280 0.947480
vt 0.956280 0.971470
vt 0.979330 0.947480
vt 0.979330 0.971470
vt 0.982080 0.947480
vt 0.982080 0.971470
vt 0.984840 0.947480
vt 0.984840 0.971470
vt 0.994760 0.971470
vt 0.994760 0.947480
vt 1.919240 0.452340
vt 1.924240 0.449300
vt 1.920880 0.449410
vt 1.969400 0.472970
vt 1.919240 0.514730
vt 1.919240 0.526070
vt 1.920420 0.529000
vt 1.923290 0.530330
vt 1.972390 0.477980
vt 1.971610 0.475060
vt 1.972390 0.509140
vt 1.970130 0.514540
vt 1.971780 0.512070
vt 1.949700 0.531780
vt 1.955180 0.529660
vt 1.952670 0.531310
vt 0.503310 0.325670
vt 0.504410 0.320530
vt 0.530570 0.376720
vt 0.533060 0.381380
vt 0.538390 0.375420
vt 0.507810 0.316260
vt 0.539690 0.376070
vt 0.539330 0.383170
vt 0.545570 0.381540
vt 0.541050 0.375220
vt 0.572550 0.339570
vt 0.573300 0.327030
vt 0.704680 0.316260
vt 0.712820 0.339570
vt 0.724870 0.326020
vt 0.719460 0.316260
vt 0.730240 0.337240
vt 0.818920 0.349360
vt 0.818920 0.353140
vt 0.793080 0.353140
vt 0.792500 0.349360
vt 0.793080 0.365840
vt 0.792510 0.365840
vt 0.787910 0.365840
vt 0.787910 0.349360
vt 0.609720 0.365840
vt 0.609720 0.349360
vt 0.597170 0.365840
vt 0.597160 0.341620
vt 0.578270 0.365840
vt 0.578270 0.341470
vt 0.570070 0.348670
vt 0.570070 0.365840
vt 1.530570 0.376720
vt 1.504410 0.320530
vt 1.503310 0.325670
vt 1.533060 0.381380
vt 1.538390 0.375420
vt 1.507810 0.316260
vt 1.539690 0.376070
vt 1.539330 0.383170
vt 1.545570 0.381540
vt 1.541050 0.375220
vt 1.572550 0.339570
vt 1.573300 0.327030
vt 1.704680 0.316260
vt 1.712820 0.339570
vt 1.724870 0.326020
vt 1.719460 0.316260
vt 1.730240 0.337240
vt 1.793080 0.353140
vt 1.818920 0.353140
vt 1.818920 0.349360
vt 1.792500 0.349360
vt 1.792510 0.365840
vt 1.793080 0.365840
vt 1.787910 0.365840
vt 1.787910 0.349360
vt 1.609720 0.365840
vt 1.609720 0.349360
vt 1.597170 0.365840
vt 1.597160 0.341620
vt 1.578270 0.365840
vt 1.578270 0.341470
vt 1.570070 0.348670
vt 1.570070 0.365840
vt 0.121470 0.004200
vt 0.118050 0.004200
vt 0.121470 0.002440
vt 0.118050 0.002440
vt 0.114630 0.002440
vt 0.114630 0.004200
vt 0.111200 0.004200
vt 0.111200 0.002440
vt 1.121470 0.004200
vt 1.118050 0.004200
vt 1.121470 0.002440
vt 1.118050 0.002440
vt 1.114630 0.002440
vt 1.114630 0.004200
vt 1.111200 0.004200
vt 1.111200 0.002440
vt 0.317060 0.887120
vt 0.303240 0.887120
vt 0.324150 0.849200
vt 0.332240 0.858290
vt 0.489110 0.887120
vt 0.470630 0.849200
vt 0.492140 0.859260
vt 0.492140 0.884470
vt 0.488330 0.849210
vt 1.324150 0.849200
vt 1.303240 0.887120
vt 1.317060 0.887120
vt 1.332240 0.858290
vt 1.489110 0.887120
vt 1.470630 0.849200
vt 1.492140 0.859260
vt 1.492140 0.884470
vt 1.488330 0.849210
vt 0.133250 0.030920
vt 0.130780 0.030920
vt 0.132120 0.026800
vt 0.134160 0.027920
vt 0.139320 0.030920
vt 0.135150 0.023650
vt 0.136350 0.025650
vt 0.139320 0.024650
vt 0.139320 0.022160
vt 1.133250 0.030920
vt 1.130780 0.030920
vt 1.132120 0.026800
vt 1.134160 0.027920
vt 1.139320 0.030920
vt 1.135150 0.023650
vt 1.136350 0.025650
vt 1.139320 0.024650
vt 1.139320 0.022160
vt 0.021360 0.370680
vt 0.017390 0.373560
vt 0.010460 0.363520
vt 0.014950 0.360470
vt 0.053360 0.360180
vt 0.024400 0.355160
vt 0.049370 0.355160
vt 0.053760 0.359950
vt 0.055400 0.370730
vt 0.021300 0.375630
vt 0.055420 0.375640
vt 0.059740 0.361050
vt 0.059740 0.360560
vt 0.059740 0.371390
vt 1.010460 0.363520
vt 1.017390 0.373560
vt 1.021360 0.370680
vt 1.014950 0.360470
vt 1.053360 0.360180
vt 1.024400 0.355160
vt 1.049370 0.355160
vt 1.053760 0.359950
vt 1.055400 0.370730
vt 1.021300 0.375630
vt 1.055420 0.375640
vt 1.059740 0.361050
vt 1.059740 0.360560
vt 1.059740 0.371390
vt 0.292000 0.200780
vt 0.289680 0.201350
vt 0.289570 0.197860
vt 0.292000 0.197700
vt 0.239000 0.201350
vt 0.289580 0.194370
vt 0.292000 0.194520
vt 0.292000 0.191430
vt 0.289680 0.190860
vt 0.239210 0.197840
vt 0.239210 0.194350
vt 0.239000 0.190860
vt 0.234430 0.197370
vt 0.234180 0.192400
vt 0.234190 0.199800
vt 0.234450 0.194850
vt 0.227070 0.194870
vt 0.226900 0.192400
vt 0.207690 0.196030
vt 0.227060 0.197340
vt 0.226870 0.199800
vt 1.292000 0.200780
vt 1.289680 0.201350
vt 1.289570 0.197860
vt 1.292000 0.197700
vt 1.239000 0.201350
vt 1.289580 0.194370
vt 1.292000 0.194520
vt 1.292000 0.191430
vt 1.289680 0.190860
vt 1.239210 0.197840
vt 1.239210 0.194350
vt 1.239000 0.190860
vt 1.234430 0.197370
vt 1.234180 0.192400
vt 1.234190 0.199800
vt 1.234450 0.194850
vt 1.227070 0.194870
vt 1.226900 0.192400
vt 1.207700 0.196030
vt 1.227060 0.197340
vt 1.226870 0.199800
vt 0.593640 0.170080
vt 0.590130 0.166160
vt 0.607150 0.166160
vt 0.590130 0.151730
vt 0.607150 0.170080
vt 0.607150 0.151730
vt 0.620650 0.170080
vt 0.624170 0.151730
vt 0.624170 0.166160
s 1
usemtl mat0
f 1/1/1 2/2/1 3/3/1
f 4/4/1 1/1/1 3/3/1
f 5/5/1 6/6/1 7/7/1
f 5/5/1 7/7/1 8/8/1
f 9/9/2 10/10/3 11/11/4
f 12/12/5 9/9/2 11/11/4
f 12/12/5 11/11/4 13/13/6
f 13/13/6 14/14/7 15/15/8
f 15/15/8 16/16/9 13/13/6
f 17/17/10 12/12/5 13/13/6
f 16/16/9 17/17/10 13/13/6
f 12/12/5 17/17/10 18/18/11
f 17/17/10 16/16/9 19/19/12
f 17/17/10 19/19/12 18/18/11
f 19/19/12 20/20/13 18/18/11
f 19/19/12 21/21/14 20/20/13
f 20/20/13 22/22/15 18/18/11
f 23/23/16 20/20/13 21/21/14
f 22/22/15 20/20/13 23/23/16
f 24/24/17 23/23/16 21/21/14
f 24/24/17 25/25/18 23/23/16
f 26/26/19 22/22/15 23/23/16
f 27/27/20 22/22/15 26/26/19
f 28/28/21 27/27/20 26/26/19
f 29/29/22 30/30/22 31/31/23
f 29/29/22 31/31/23 32/32/22
f 31/31/23 33/33/24 32/32/22
f 32/32/22 33/33/24 34/34/22
f 32/32/22 34/34/22 35/35/22
f 36/36/25 37/37/26 38/38/27
f 37/37/26 39/39/28 38/38/27
f 39/39/28 40/40/29 38/38/27
f 40/40/29 39/39/28 41/41/30
f 42/42/31 43/43/31 41/41/30
f 42/42/31 41/41/30 39/39/28
f 44/44/32 45/45/33 39/39/28
f 45/45/33 46/46/34 39/39/28
f 47/47/35 42/42/31 39/39/28
f 46/46/34 47/47/35 39/39/28
f 47/47/35 46/46/34 48/48/31
f 49/49/31 42/42/31 47/47/35
f 47/47/35 50/50/31 49/49/31
f 50/50/31 51/51/31 49/49/31
f 52/52/36 53/53/37 54/54/38
f 53/53/37 55/55/39 54/54/38
f 53/53/37 56/56/40 55/55/39
f 56/56/40 57/57/41 55/55/39
f 57/57/41 56/56/40 58/58/42
f 56/56/40 59/59/43 58/58/42
f 58/58/42 59/59/43 60/60/44
f 60/60/44 59/59/43 61/61/45
f 62/62/46 60/60/44 61/61/45
f 62/62/46 61/61/45 63/63/47
f 61/61/45 64/64/48 63/63/47
f 65/65/49 62/62/46 63/63/47
f 64/64/48 66/66/50 63/63/47
f 65/65/49 63/63/47 67/67/51
f 67/67/51 63/63/47 66/66/50
f 68/68/52 67/67/51 66/66/50
f 69/69/53 65/65/49 67/67/51
f 68/68/52 70/70/54 67/67/51
f 71/71/55 69/69/53 67/67/51
f 70/70/54 71/71/55 67/67/51
f 69/69/53 71/71/55 72/72/56
f 72/72/56 71/71/55 70/70/54
f 73/73/23 74/74/57 75/75/22
f 76/76/22 73/73/23 75/75/22
f 76/76/22 77/77/24 73/73/23
f 78/78/22 77/77/24 76/76/22
f 79/79/22 78/78/22 76/76/22
f 80/80/58 81/81/59 82/82/60
f 80/80/58 83/83/61 81/81/59
f 83/83/61 84/84/62 81/81/59
f 83/83/61 85/85/63 84/84/62
f 86/86/64 84/84/62 85/85/63
f 86/86/64 87/87/65 84/84/62
f 88/88/66 87/87/65 86/86/64
f 89/89/67 87/87/65 88/88/66
f 89/89/67 88/88/66 90/90/68
f 91/91/69 89/89/67 90/90/68
f 91/91/69 92/92/70 89/89/67
f 91/91/69 90/90/68 93/93/71
f 91/91/69 94/94/72 92/92/70
f 95/95/73 91/91/69 93/93/71
f 94/94/72 91/91/69 95/95/73
f 94/94/72 95/95/73 96/96/74
f 95/95/73 93/93/71 97/97/75
f 95/95/73 98/98/76 96/96/74
f 95/95/73 97/97/75 99/99/77
f 95/95/73 99/99/77 98/98/76
f 100/100/78 99/99/77 97/97/75
f 98/98/76 99/99/77 100/100/78
f 101/101/79 102/102/80 103/103/81
f 102/102/80 104/104/82 103/103/81
f 102/102/80 105/105/83 104/104/82
f 105/105/83 106/106/84 104/104/82
f 105/105/83 107/107/85 106/106/84
f 107/107/85 108/108/86 106/106/84
f 107/107/85 109/109/87 108/108/86
f 109/109/87 110/110/88 108/108/86
f 109/109/87 111/111/89 110/110/88
f 111/111/89 112/112/90 110/110/88
f 111/111/89 113/113/91 112/112/90
f 113/113/91 114/114/91 112/112/90
f 113/113/91 115/115/92 114/114/91
f 115/115/92 116/116/93 114/114/91
f 115/115/92 117/117/94 116/116/93
f 117/117/94 118/118/95 116/116/93
f 117/117/94 119/119/96 118/118/95
f 119/119/96 120/120/96 118/118/95
f 119/119/96 121/121/97 120/120/96
f 121/121/97 122/122/97 120/120/96
f 121/121/97 123/123/98 122/122/97
f 123/123/98 124/124/98 122/122/97
f 123/123/98 125/125/99 124/124/98
f 125/125/99 126/126/100 124/124/98
f 125/125/99 127/127/101 126/126/100
f 127/127/101 128/128/101 126/126/100
f 127/127/101 129/129/102 128/128/101
f 129/129/102 130/130/103 128/128/101
f 130/130/103 129/129/102 131/131/104
f 129/129/102 132/132/105 131/131/104
f 133/133/106 134/134/107 135/135/108
f 133/133/106 136/136/109 134/134/107
f 133/133/106 137/137/110 136/136/109
f 138/138/111 136/136/109 137/137/110
f 138/138/111 139/139/112 140/140/112
f 136/136/109 138/138/111 140/140/112
f 136/136/109 141/141/113 142/142/114
f 136/136/109 143/143/115 141/141/113
f 136/136/109 140/140/112 144/144/116
f 136/136/109 144/144/116 143/143/115
f 145/145/112 143/143/115 144/144/116
f 144/144/116 140/140/112 146/146/112
f 146/146/112 147/147/112 144/144/116
f 146/146/112 148/148/112 147/147/112
f 149/149/22 150/150/117 151/151/118
f 150/150/117 152/152/119 151/151/118
f 153/153/120 152/152/119 150/150/117
f 154/154/121 153/153/120 150/150/117
f 152/152/119 153/153/120 155/155/122
f 156/156/123 152/152/119 155/155/122
f 156/156/123 155/155/122 157/157/124
f 155/155/122 153/153/120 158/158/125
f 155/155/122 158/158/125 157/157/124
f 158/158/125 153/153/120 154/154/121
f 159/159/126 157/157/124 158/158/125
f 154/154/121 160/160/127 158/158/125
f 160/160/127 159/159/126 158/158/125
f 154/154/121 161/161/128 160/160/127
f 159/159/126 160/160/127 162/162/129
f 161/161/128 163/163/130 160/160/127
f 160/160/127 163/163/130 162/162/129
f 164/164/131 163/163/130 161/161/128
f 165/165/132 162/162/129 163/163/130
f 166/166/133 167/167/134 168/168/135
f 169/169/136 166/166/133 168/168/135
f 168/168/135 170/170/137 171/171/138
f 169/169/136 168/168/135 171/171/138
f 169/169/136 171/171/138 172/172/139
f 173/173/139 169/169/136 172/172/139
f 172/172/139 174/174/140 173/173/139
f 174/174/140 175/175/140 173/173/139
f 174/174/140 176/176/141 175/175/140
f 176/176/141 177/177/142 175/175/140
f 176/176/141 178/178/143 177/177/142
f 178/178/143 179/179/144 177/177/142
f 180/180/145 179/179/144 178/178/143
f 181/181/145 180/180/145 178/178/143
f 182/182/22 183/183/146 184/184/22
f 182/182/22 185/185/147 183/183/146
f 183/183/146 185/185/147 186/186/148
f 183/183/146 186/186/148 187/187/149
f 188/188/150 186/186/148 185/185/147
f 188/188/150 185/185/147 189/189/151
f 190/190/152 188/188/150 189/189/151
f 191/191/153 186/186/148 188/188/150
f 190/190/152 191/191/153 188/188/150
f 187/187/149 186/186/148 191/191/153
f 191/191/153 190/190/152 192/192/154
f 191/191/153 193/193/155 187/187/149
f 191/191/153 192/192/154 193/193/155
f 193/193/155 194/194/156 187/187/149
f 195/195/157 193/193/155 192/192/154
f 193/193/155 196/196/158 194/194/156
f 195/195/157 196/196/158 193/193/155
f 194/194/156 196/196/158 197/197/159
f 196/196/158 195/195/157 198/198/160
f 199/199/161 200/200/162 201/201/163
f 199/199/161 201/201/163 202/202/136
f 203/203/164 204/204/165 199/199/161
f 203/203/164 199/199/161 202/202/136
f 205/205/166 203/203/164 202/202/136
f 205/205/166 202/202/136 206/206/84
f 206/206/84 207/207/140 205/205/166
f 206/206/84 208/208/140 207/207/140
f 208/208/140 209/209/141 207/207/140
f 208/208/140 210/210/142 209/209/141
f 210/210/142 211/211/143 209/209/141
f 210/210/142 212/212/167 211/211/143
f 211/211/143 212/212/167 213/213/145
f 211/211/143 213/213/145 214/214/145
f 215/215/168 216/216/169 217/217/168
f 216/216/169 218/218/169 217/217/168
f 218/218/169 216/216/169 219/219/170
f 216/216/169 220/220/171 219/219/170
f 220/220/171 221/221/172 219/219/170
f 221/221/172 222/222/172 219/219/170
f 223/223/173 224/224/174 225/225/173
f 224/224/174 226/226/175 225/225/173
f 226/226/175 224/224/174 227/227/176
f 224/224/174 228/228/177 227/227/176
f 228/228/177 229/229/178 227/227/176
f 229/229/178 230/230/179 227/227/176
f 231/223/180 232/224/181 233/225/182
f 232/224/181 234/226/183 233/225/182
f 234/226/183 232/224/181 235/227/184
f 232/224/181 236/228/185 235/227/184
f 236/228/185 237/229/186 235/227/184
f 237/229/186 238/230/186 235/227/184
f 239/223/187 240/224/188 241/225/189
f 240/224/188 242/226/190 241/225/189
f 242/226/190 240/224/188 243/227/191
f 240/224/188 244/228/192 243/227/191
f 244/228/192 245/229/193 243/227/191
f 245/229/193 246/230/193 243/227/191
f 247/231/194 248/232/195 249/233/196
f 250/234/197 247/231/194 249/233/196
f 251/235/198 247/231/194 250/234/197
f 250/234/197 249/233/196 252/236/199
f 253/237/200 251/235/198 250/234/197
f 253/237/200 250/234/197 252/236/199
f 251/235/198 253/237/200 254/238/201
f 255/239/202 253/237/200 252/236/199
f 256/240/203 257/241/204 258/242/205
f 256/240/203 258/242/205 259/243/206
f 259/243/206 258/242/205 260/244/207
f 261/245/208 256/240/203 259/243/206
f 259/243/206 260/244/207 262/246/209
f 261/245/208 259/243/206 262/246/209
f 263/247/210 262/246/209 260/244/207
f 261/245/208 262/246/209 264/248/211
f 265/249/212 266/250/213 267/251/214
f 268/252/215 265/249/212 267/251/214
f 269/253/216 265/249/212 268/252/215
f 268/252/215 267/251/214 270/254/217
f 269/253/216 268/252/215 271/255/218
f 271/255/218 268/252/215 270/254/217
f 269/253/216 271/255/218 272/256/219
f 271/255/218 270/254/217 273/257/220
f 272/256/219 271/255/218 273/257/220
f 274/258/221 275/259/222 276/260/223
f 277/261/224 274/258/221 276/260/223
f 278/262/216 274/258/221 277/261/224
f 277/261/224 276/260/223 279/263/225
f 278/262/216 277/261/224 280/264/226
f 280/264/226 277/261/224 279/263/225
f 278/262/216 280/264/226 281/265/227
f 280/264/226 279/263/225 282/266/228
f 281/265/227 280/264/226 282/266/228
f 283/258/227 284/259/229 285/260/230
f 286/261/231 283/258/227 285/260/230
f 278/262/216 283/258/227 286/261/231
f 286/261/231 285/260/230 287/263/232
f 278/262/216 286/261/231 288/264/233
f 288/264/233 286/261/231 287/263/232
f 278/262/216 288/264/233 289/265/234
f 288/264/233 287/263/232 290/266/235
f 289/265/234 288/264/233 290/266/235
f 291/258/234 292/259/236 293/260/237
f 294/261/238 291/258/234 293/260/237
f 278/262/216 291/258/234 294/261/238
f 294/261/238 293/260/237 295/263/239
f 278/262/216 294/261/238 296/264/240
f 296/264/240 294/261/238 295/263/239
f 278/262/216 296/264/240 297/265/241
f 296/264/240 295/263/239 298/266/242
f 297/265/241 296/264/240 298/266/242
f 299/267/243 300/268/244 301/269/244
f 302/270/245 299/267/243 301/269/244
f 302/270/245 303/271/246 299/267/243
f 302/270/245 304/272/247 303/271/246
f 304/272/247 305/273/248 303/271/246
f 303/271/246 305/273/248 306/274/249
f 303/271/246 307/275/250 299/267/243
f 299/267/243 307/275/250 308/276/251
f 307/275/250 309/277/251 308/276/251
f 303/271/246 306/274/249 310/278/252
f 303/271/246 310/278/252 307/275/250
f 306/274/249 311/279/253 310/278/252
f 310/278/252 312/280/254 307/275/250
f 313/281/244 314/282/244 315/283/255
f 313/281/244 315/283/255 316/284/256
f 315/283/255 317/285/257 316/284/256
f 317/285/257 318/286/258 316/284/256
f 317/285/257 319/287/259 318/286/258
f 320/288/260 319/287/259 317/285/257
f 315/283/255 321/289/261 317/285/257
f 322/290/251 321/289/261 315/283/255
f 322/290/251 323/291/251 321/289/261
f 324/292/262 320/288/260 317/285/257
f 321/289/261 324/292/262 317/285/257
f 324/292/262 325/293/263 320/288/260
f 321/289/261 326/294/254 324/292/262
f 327/295/264 328/296/265 329/297/266
f 330/298/267 327/295/264 329/297/266
f 328/296/265 331/299/268 329/297/266
f 330/298/267 329/297/266 332/300/269
f 333/301/270 330/298/267 332/300/269
f 334/302/271 333/301/270 332/300/269
f 335/303/53 334/302/271 332/300/269
f 331/299/268 336/304/272 329/297/266
f 329/297/266 336/304/272 332/300/269
f 332/300/269 337/305/273 335/303/53
f 336/304/272 337/305/273 332/300/269
f 337/305/273 338/306/274 335/303/53
f 339/307/275 336/304/272 331/299/268
f 336/304/272 339/307/275 337/305/273
f 340/308/276 338/306/274 337/305/273
f 341/309/277 339/307/275 331/299/268
f 342/310/278 340/308/276 337/305/273
f 339/307/275 342/310/278 337/305/273
f 340/308/276 342/310/278 343/311/279
f 342/310/278 339/307/275 343/311/279
f 344/312/280 340/308/276 343/311/279
f 344/312/280 343/311/279 345/313/281
f 339/307/275 341/309/277 346/314/282
f 339/307/275 346/314/282 343/311/279
f 346/314/282 345/313/281 343/311/279
f 341/309/277 347/315/283 346/314/282
f 346/314/282 347/315/283 345/313/281
f 348/316/284 349/317/285 350/318/286
f 351/319/287 348/316/284 350/318/286
f 349/317/285 352/320/288 350/318/286
f 351/319/287 350/318/286 353/321/289
f 354/322/290 351/319/287 353/321/289
f 355/323/291 354/322/290 353/321/289
f 356/324/292 355/323/291 353/321/289
f 352/320/288 357/325/293 350/318/286
f 350/318/286 357/325/293 353/321/289
f 353/321/289 358/326/294 356/324/292
f 357/325/293 358/326/294 353/321/289
f 358/326/294 359/327/295 356/324/292
f 360/328/296 357/325/293 352/320/288
f 357/325/293 360/328/296 358/326/294
f 361/329/297 359/327/295 358/326/294
f 362/330/276 360/328/296 352/320/288
f 363/331/298 361/329/297 358/326/294
f 360/328/296 363/331/298 358/326/294
f 361/329/297 363/331/298 364/332/299
f 363/331/298 360/328/296 364/332/299
f 365/333/297 361/329/297 364/332/299
f 365/333/297 364/332/299 366/334/300
f 360/328/296 362/330/276 367/335/301
f 360/328/296 367/335/301 364/332/299
f 367/335/301 366/334/300 364/332/299
f 362/330/276 368/336/280 367/335/301
f 367/335/301 368/336/280 366/334/300
f 369/316/302 370/317/303 371/318/304
f 372/319/305 369/316/302 371/318/304
f 370/317/303 373/320/306 371/318/304
f 372/319/305 371/318/304 374/321/307
f 375/322/308 372/319/305 374/321/307
f 376/323/309 375/322/308 374/321/307
f 377/324/310 376/323/309 374/321/307
f 373/320/306 378/325/311 371/318/304
f 371/318/304 378/325/311 374/321/307
f 374/321/307 379/326/312 377/324/310
f 378/325/311 379/326/312 374/321/307
f 379/326/312 380/327/313 377/324/310
f 381/328/314 378/325/311 373/320/306
f 378/325/311 381/328/314 379/326/312
f 382/329/315 380/327/313 379/326/312
f 383/330/297 381/328/314 373/320/306
f 384/331/316 382/329/315 379/326/312
f 381/328/314 384/331/316 379/326/312
f 382/329/315 384/331/316 385/332/317
f 384/331/316 381/328/314 385/332/317
f 386/333/318 382/329/315 385/332/317
f 386/333/318 385/332/317 366/334/319
f 381/328/314 383/330/297 387/335/320
f 381/328/314 387/335/320 385/332/317
f 387/335/320 366/334/319 385/332/317
f 383/330/297 388/336/321 387/335/320
f 387/335/320 388/336/321 366/334/319
f 389/316/322 390/317/75 391/318/323
f 392/319/324 389/316/322 391/318/323
f 390/317/75 393/320/325 391/318/323
f 392/319/324 391/318/323 394/321/326
f 395/322/327 392/319/324 394/321/326
f 396/323/328 395/322/327 394/321/326
f 397/324/329 396/323/328 394/321/326
f 393/320/325 398/325/330 391/318/323
f 391/318/323 398/325/330 394/321/326
f 394/321/326 399/326/331 397/324/329
f 398/325/330 399/326/331 394/321/326
f 399/326/331 400/327/332 397/324/329
f 401/328/333 398/325/330 393/320/325
f 398/325/330 401/328/333 399/326/331
f 402/329/283 400/327/332 399/326/331
f 403/330/334 401/328/333 393/320/325
f 404/331/335 402/329/283 399/326/331
f 401/328/333 404/331/335 399/326/331
f 402/329/283 404/331/335 405/332/336
f 404/331/335 401/328/333 405/332/336
f 406/333/283 402/329/283 405/332/336
f 406/333/283 405/332/336 366/334/337
f 401/328/333 403/330/334 407/335/338
f 401/328/333 407/335/338 405/332/336
f 407/335/338 366/334/337 405/332/336
f 403/330/334 408/336/315 407/335/338
f 407/335/338 408/336/315 366/334/337
f 409/337/339 410/338/340 411/339/341
f 410/338/340 412/340/342 411/339/341
f 413/341/343 409/337/339 411/339/341
f 412/340/342 414/342/344 411/339/341
f 413/341/343 411/339/341 415/343/345
f 414/342/344 416/344/346 411/339/341
f 411/339/341 417/345/347 415/343/345
f 416/344/346 417/345/347 411/339/341
